<svg aria-hidden="true" style="position: absolute; width: 0; height: 0; overflow: hidden;" version="1.1" xmlns="http://www.w3.org/2000/svg" xmlns:xlink="http://www.w3.org/1999/xlink">
<defs>
<symbol id="icon-moonsvg" viewBox="0 0 32 32">
<path d="M20.333 3.958c-0.253 0-0.515 0.018-0.813 0.056-1.274-1.917-3.388-3.055-5.687-3.055-3.643 0-6.65 2.895-6.823 6.505-0.059-0.003-0.118-0.005-0.177-0.005-3.768 0-6.833 3.065-6.833 6.833 0 1.709 0.633 3.336 1.787 4.599-0.246 0.772-0.37 1.565-0.37 2.359 0 4.297 3.496 7.792 7.792 7.792 1.096 0 2.163-0.23 3.173-0.683 1.417 1.707 3.484 2.683 5.702 2.683 3.659 0 6.772-2.686 7.324-6.281 3.714-0.294 6.593-3.389 6.593-7.135 0-3.084-1.935-5.783-4.834-6.777 0.001-0.019 0.001-0.037 0.001-0.056-0-3.769-3.066-6.835-6.834-6.835zM5.684 16.008c0.131-3.494 1.583-5.984 4.319-7.414 2.138-1.118 4.412-1.205 5.058-1.205 0.127 0 0.196 0.003 0.196 0.003 0.074 0.003 0.134 0.060 0.142 0.133s-0.038 0.142-0.109 0.161c-1.615 0.443-2.964 2.478-2.977 2.498-1.855 2.663-1.594 4.958-1.047 6.415 0.916 2.445 3.22 4.18 5.021 4.631 0.558 0.14 1.127 0.21 1.691 0.21 1.694 0 2.984-0.639 3.535-0.912 0.218-0.108 0.307-0.152 0.384-0.152 0.083 0 0.169 0.083 0.169 0.166 0 0.28-1.573 2.948-3.762 3.806-0.995 0.43-2.261 0.668-3.561 0.668-4.139-0.001-8.693-2.367-9.060-9.008zM19.184 6.362c-0.001-0.071 0.038-0.136 0.102-0.169s0.14-0.026 0.197 0.017l1.376 1.027 1.626-0.551c0.067-0.024 0.142-0.006 0.192 0.045s0.068 0.125 0.045 0.192l-0.551 1.626 1.027 1.376c0.043 0.057 0.049 0.133 0.017 0.197s-0.106 0.094-0.169 0.102l-1.717-0.022-0.991 1.402c-0.035 0.050-0.092 0.079-0.153 0.079-0.010 0-0.020-0.001-0.029-0.002-0.070-0.011-0.128-0.061-0.149-0.129l-0.509-1.64-1.64-0.51c-0.068-0.021-0.118-0.079-0.129-0.149s0.019-0.141 0.076-0.182l1.402-0.991-0.023-1.718zM15.364 14.353c-0.001-0.041 0.022-0.078 0.058-0.097s0.080-0.014 0.112 0.010l0.786 0.587 0.929-0.315c0.039-0.012 0.081-0.003 0.11 0.026s0.039 0.071 0.026 0.11l-0.315 0.93 0.587 0.786c0.024 0.033 0.028 0.076 0.010 0.112s-0.064 0.060-0.097 0.058l-0.982-0.012-0.567 0.801c-0.020 0.029-0.053 0.045-0.087 0.045-0.005 0-0.011 0-0.017-0.001-0.040-0.006-0.073-0.035-0.086-0.074l-0.291-0.937-0.937-0.291c-0.038-0.012-0.067-0.045-0.074-0.085s0.011-0.080 0.044-0.104l0.801-0.567-0.012-0.982zM21.931 18.436c-0.028 0.040-0.074 0.064-0.122 0.064-0.008 0-0.015-0.001-0.023-0.002-0.056-0.009-0.103-0.049-0.12-0.104l-0.408-1.313-1.313-0.408c-0.055-0.017-0.095-0.064-0.104-0.12s0.015-0.113 0.061-0.145l1.123-0.794-0.018-1.375c-0.001-0.057 0.031-0.11 0.082-0.135s0.112-0.020 0.157 0.013l1.102 0.823 1.303-0.442c0.053-0.019 0.113-0.005 0.154 0.036s0.054 0.1 0.036 0.154l-0.442 1.303 0.823 1.102c0.034 0.045 0.039 0.107 0.013 0.157s-0.077 0.082-0.135 0.082l-1.375-0.018-0.794 1.122z"></path>
</symbol>
<symbol id="icon-sun" viewBox="0 0 32 32">
<path d="M16.746 0.372c-0.033 0.605-0.193 1.16-0.527 1.829-0.244 0.487-0.457 0.819-1.364 2.132-0.759 1.1-1.108 1.806-1.226 2.492-0.050 0.279-0.050 0.791-0.002 1.067 0.075 0.429 0.281 0.932 0.568 1.379 0.193 0.301 0.188 0.304 0.206-0.136 0.055-1.314 0.417-2.524 1.545-5.167 0.841-1.972 1.037-2.577 1.040-3.18 0-0.264-0.028-0.412-0.105-0.565-0.1-0.193-0.116-0.173-0.133 0.148z"></path>
<path d="M8.364 1.972c0 0.010 0.028 0.040 0.063 0.068 0.090 0.070 0.271 0.311 0.374 0.502 0.163 0.294 0.296 0.713 0.377 1.188 0.1 0.575 0.118 0.909 0.141 2.662 0.028 2.004 0.053 2.426 0.178 3.064 0.183 0.929 0.558 1.464 1.163 1.663 0.176 0.058 0.249 0.065 0.543 0.068 0.452 0.002 0.472-0.008 0.286-0.143-0.51-0.377-0.879-1.012-1.090-1.879-0.171-0.698-0.231-1.366-0.289-3.125-0.048-1.492-0.083-1.929-0.191-2.459-0.181-0.869-0.52-1.366-1.057-1.545-0.166-0.055-0.497-0.1-0.497-0.065z"></path>
<path d="M24.322 2.587c-0.234 0.429-0.603 0.869-1.022 1.221-0.515 0.435-1.133 0.809-2.572 1.565-0.947 0.497-1.434 0.796-1.884 1.155-0.907 0.726-1.409 1.54-1.613 2.61-0.053 0.271-0.1 0.819-0.075 0.857 0.008 0.013 0.166 0.103 0.352 0.203 1.916 1.025 2.881 2.419 2.806 4.056-0.113 2.434-2.673 4.936-5.471 5.348-0.344 0.050-1.010 0.053-1.341 0.003-1.62-0.244-2.861-1.371-3.532-3.215-0.060-0.161-0.113-0.281-0.118-0.264-0.015 0.045 0.040 0.472 0.111 0.849 0.329 1.756 1.243 3.147 2.622 3.989 1.613 0.982 3.808 1.125 5.727 0.369 1.881-0.741 3.245-2.223 3.717-4.044 0.131-0.5 0.178-0.852 0.193-1.417 0.035-1.289-0.198-2.321-0.703-3.112-0.367-0.573-0.914-1.13-2.014-2.045-0.427-0.357-0.884-0.741-1.010-0.854-0.269-0.234-0.266-0.226-0.196-0.633 0.118-0.673 0.427-1.251 0.967-1.796 0.532-0.538 0.987-0.849 2.349-1.605 1.256-0.696 1.703-0.995 2.12-1.409 0.327-0.327 0.575-0.736 0.666-1.103 0.050-0.196 0.078-0.648 0.048-0.804l-0.023-0.113-0.103 0.188z"></path>
<path d="M2.67 7.726c0.008 0.008 0.103 0.053 0.211 0.1 0.766 0.334 1.392 0.992 2.027 2.133 0.090 0.166 0.387 0.741 0.656 1.281 0.671 1.349 0.97 1.834 1.414 2.301 0.274 0.289 0.485 0.447 0.796 0.6 0.289 0.141 0.462 0.191 0.799 0.226 0.316 0.033 0.934-0.025 1.073-0.1 0.030-0.018 0.030-0.025-0.013-0.040-0.56-0.196-1.175-0.628-1.67-1.173-0.447-0.492-0.809-1.007-1.57-2.228-0.706-1.135-1.012-1.572-1.399-2.004-0.661-0.736-1.384-1.108-2.165-1.11-0.095 0-0.168 0.008-0.158 0.015z"></path>
<path d="M30.084 8.304c-0.362 0.412-1.007 0.713-1.763 0.826-0.392 0.058-1.105 0.093-1.545 0.075-0.213-0.008-0.784-0.033-1.268-0.055-2.228-0.098-3.185 0.030-3.941 0.533-0.414 0.274-0.766 0.784-0.909 1.314l-0.045 0.163 0.075 0.060c0.136 0.111 0.374 0.211 0.53 0.226 0.327 0.030 0.553-0.098 1.088-0.608 0.407-0.389 0.64-0.573 0.872-0.688 0.322-0.161 0.54-0.183 1.276-0.131 0.673 0.048 1.731 0.060 2.349 0.030 1.489-0.073 2.404-0.264 2.981-0.62 0.419-0.259 0.598-0.625 0.512-1.042-0.050-0.236-0.070-0.246-0.211-0.083z"></path>
<path d="M15.058 10.542c-0.244 0.020-0.676 0.090-0.929 0.151-0.314 0.075-0.316 0.075 0.176 0.133 2.183 0.256 3.316 1.665 2.863 3.559-0.241 1.007-0.919 1.974-1.798 2.559-0.952 0.635-2.035 0.759-3.032 0.349-0.306-0.126-0.304-0.126-0.206-0.038 0.166 0.151 0.761 0.527 1.065 0.676 0.337 0.166 0.723 0.301 1.047 0.372 0.166 0.035 0.316 0.045 0.701 0.043 0.447 0 0.512-0.008 0.736-0.068 1.444-0.387 2.557-1.786 2.884-3.622 0.083-0.467 0.085-1.228 0.003-1.638-0.291-1.452-1.201-2.308-2.625-2.467-0.226-0.025-0.653-0.030-0.884-0.010z"></path>
<path d="M13.682 12.041c-0.163 0.068-0.306 0.161-0.394 0.254l-0.058 0.063h0.098c0.44 0 1.175 0.487 1.422 0.944 0.153 0.281 0.224 1.020 0.131 1.376-0.083 0.327-0.274 0.588-0.56 0.781-0.241 0.158-0.472 0.259-1.073 0.465-0.517 0.178-0.678 0.244-0.656 0.266 0.033 0.033 0.515 0.161 0.746 0.201 0.362 0.060 0.794 0.040 1.067-0.050 0.387-0.126 0.676-0.377 0.867-0.754 0.422-0.841 0.249-2.261-0.377-3.087-0.153-0.201-0.296-0.327-0.49-0.427-0.126-0.063-0.186-0.078-0.364-0.085-0.183-0.008-0.234 0-0.359 0.053z"></path>
<path d="M24.186 13.501c-0.455 0.085-0.919 0.281-1.371 0.578-0.291 0.191-0.279 0.163-0.221 0.502 0.043 0.239 0.088 0.349 0.161 0.389 0.078 0.040 0.136 0.030 0.344-0.065 0.907-0.412 1.786-0.455 2.758-0.131 0.553 0.183 1.037 0.435 2.035 1.057 1.605 1 2.035 1.191 2.765 1.216 0.274 0.010 0.362 0.005 0.553-0.040 0.219-0.053 0.661-0.249 0.789-0.349 0.060-0.048 0.058-0.048-0.377-0.063-0.656-0.023-1.143-0.146-1.796-0.457-0.563-0.266-0.897-0.477-2.102-1.324-0.779-0.548-1.050-0.718-1.467-0.927-0.347-0.173-0.681-0.296-0.992-0.364-0.256-0.055-0.836-0.068-1.078-0.023z"></path>
<path d="M0.334 14.862c-0.113 0.108-0.234 0.239-0.271 0.289-0.065 0.090-0.065 0.093-0.015 0.118 0.068 0.038 0.188 0.035 0.666-0.013 0.505-0.050 0.909-0.038 1.158 0.040 0.143 0.045 0.193 0.075 0.264 0.161 0.186 0.224 0.656 0.666 0.929 0.879 1.135 0.882 2.647 1.65 3.838 1.949 0.741 0.186 1.457 0.166 1.869-0.055 0.261-0.138 0.525-0.487 0.585-0.771l0.018-0.085-0.095 0.015c-0.919 0.153-1.906 0.020-2.961-0.402-0.435-0.173-1.050-0.465-1.934-0.922-1.555-0.801-2.429-1.145-3.353-1.319-0.517-0.098-0.46-0.105-0.696 0.116z"></path>
<path d="M23.545 17.733c-0.196 0.028-0.578 0.156-0.774 0.259l-0.151 0.080 0.173 0.018c0.653 0.070 1.233 0.48 1.854 1.309 0.276 0.367 0.495 0.706 1.010 1.562 0.804 1.339 1.065 1.728 1.492 2.223 0.505 0.59 1.052 0.965 1.602 1.095 0.188 0.045 0.663 0.060 0.824 0.025l0.1-0.020-0.221-0.073c-0.613-0.201-1.13-0.61-1.653-1.311-0.324-0.435-0.608-0.912-1.057-1.781-0.517-1.007-0.864-1.645-1.037-1.929-0.49-0.786-1.025-1.286-1.525-1.417-0.186-0.048-0.457-0.065-0.638-0.040z"></path>
<path d="M10.59 20.099c-0.005 0.018-0.025 0.105-0.043 0.196s-0.075 0.251-0.128 0.357c-0.362 0.721-1.236 1.090-2.909 1.226-0.173 0.013-0.907 0.043-1.633 0.063-1.683 0.048-2.193 0.088-2.688 0.213-0.429 0.111-0.628 0.203-0.836 0.399-0.191 0.178-0.251 0.319-0.264 0.61-0.005 0.136-0.005 0.246 0.002 0.246 0.010 0 0.093-0.078 0.188-0.171 0.193-0.193 0.379-0.314 0.673-0.427 0.663-0.261 1.469-0.322 3.213-0.244 1.203 0.055 2.467 0.063 2.876 0.018 1.226-0.138 1.949-0.495 2.386-1.178 0.111-0.171 0.274-0.55 0.249-0.568-0.005-0.005-0.083-0.043-0.173-0.088-0.116-0.055-0.236-0.148-0.414-0.319-0.254-0.246-0.482-0.397-0.5-0.334z"></path>
<path d="M20.629 20.486c0.008 0.028 0.038 0.133 0.068 0.236s0.191 0.55 0.357 0.992c0.919 2.449 1.226 3.753 1.268 5.375 0.015 0.635-0.015 1.173-0.095 1.733-0.028 0.193-0.053 0.377-0.055 0.404-0.005 0.043 0.078 0.111 0.384 0.327 0.213 0.151 0.432 0.306 0.485 0.347 0.050 0.038 0.093 0.063 0.093 0.055 0-0.010-0.045-0.085-0.1-0.166-0.141-0.208-0.311-0.553-0.389-0.791-0.123-0.374-0.143-0.532-0.141-1.143 0.003-0.532 0.018-0.811 0.118-2.311 0.060-0.859 0.060-2.256 0.003-2.71-0.118-0.924-0.342-1.505-0.736-1.896-0.284-0.286-0.62-0.435-1.088-0.48-0.171-0.018-0.183-0.015-0.171 0.028z"></path>
<path d="M13.664 22.222c0 0.55-0.211 1.223-0.535 1.703-0.168 0.251-0.414 0.532-0.643 0.736-0.515 0.462-0.967 0.751-2.213 1.424-0.352 0.191-0.759 0.414-0.904 0.497-1.093 0.625-1.67 1.238-1.861 1.964-0.058 0.216-0.078 0.733-0.038 0.929l0.020 0.1 0.111-0.236c0.324-0.693 0.879-1.286 1.693-1.819 0.352-0.229 0.723-0.427 1.577-0.849 0.96-0.475 1.427-0.723 1.793-0.954 1.040-0.656 1.663-1.422 1.944-2.384 0.068-0.231 0.161-0.733 0.161-0.867v-0.080l-0.156-0.018c-0.306-0.035-0.613-0.143-0.829-0.294-0.108-0.078-0.121-0.063-0.121 0.146z"></path>
<path d="M17.592 22.611c0.038 0.121 0.068 0.59 0.053 0.824-0.073 1.188-0.507 2.336-1.808 4.76-0.686 1.279-0.914 1.773-0.99 2.15-0.028 0.126-0.023 0.158 0.035 0.344 0.111 0.354 0.565 1.201 0.661 1.231 0.020 0.005 0.030-0.018 0.030-0.070 0-0.146 0.128-0.658 0.244-0.98 0.148-0.414 0.374-0.902 0.851-1.834 0.831-1.623 1.1-2.248 1.304-3.019 0.143-0.55 0.173-0.776 0.173-1.339 0-0.553-0.028-0.766-0.161-1.216-0.088-0.294-0.286-0.759-0.357-0.839-0.035-0.040-0.045-0.043-0.035-0.013z"></path>
</symbol>
</defs>
</svg>
