<svg aria-hidden="true" style="position: absolute; width: 0; height: 0; overflow: hidden;" version="1.1" xmlns="http://www.w3.org/2000/svg" xmlns:xlink="http://www.w3.org/1999/xlink">
<defs>
<symbol id="icon-film" viewBox="0 0 32 32">
<path   stroke-linejoin="round" stroke-linecap="round" stroke-miterlimit="4" stroke-width="2.6667" d="M26.444 2.668h-20.867c-1.606 0-2.909 1.302-2.909 2.909v0 20.867c0 1.606 1.302 2.909 2.909 2.909v0h20.867c1.606 0 2.909-1.302 2.909-2.909v0-20.867c0-1.606-1.302-2.909-2.909-2.909v0zM9.339 2.668v26.684M22.681 2.668v26.684M2.668 16.010h26.684M2.668 9.339h6.671M2.668 22.681h6.671M22.681 22.681h6.671M22.681 9.339h6.671"></path>
</symbol>
<symbol id="icon-search" viewBox="0 0 32 32">
<path fill="none"   stroke-linejoin="round" stroke-linecap="round" stroke-miterlimit="4" stroke-width="2.6667" d="M14.667 25.333c5.891 0 10.667-4.776 10.667-10.667s-4.776-10.667-10.667-10.667v0c-5.891 0-10.667 4.776-10.667 10.667s4.776 10.667 10.667 10.667v0zM28 28l-5.8-5.8"></path>
</symbol>
</defs>
</svg>
